<?xml version="1.0" encoding="utf-8"?>
<!-- Generator: Adobe Illustrator 19.2.1, SVG Export Plug-In . SVG Version: 6.00 Build 0)  -->
<svg version="1.1" id="Layer_1" xmlns="http://www.w3.org/2000/svg" xmlns:xlink="http://www.w3.org/1999/xlink" x="0px" y="0px"
	 viewBox="0 0 645.7 161.9" style="enable-background:new 0 0 645.7 161.9;" xml:space="preserve">
<style type="text/css">
	.st0{fill:#FFFFFE;}
	.st1{fill:#AC162C;}
	.st2{fill:#FFA400;}
	.st3{fill:#00953A;}
	.st4{fill:#0075C9;}
	.st5{fill:#17191D;}
	.st6{fill:#EC0044;}
	.st7{fill:#012639;}
</style>
<g>
	<g>
		<g>
			<path class="st0" d="M265.3,80.9c0,32,25.9,57.9,57.9,57.9c32,0,57.9-25.9,57.9-57.9c0-32-25.9-57.9-57.9-57.9
				C291.2,23,265.3,48.9,265.3,80.9z M356.3,39v3.2h-38.7v3.2h38.7v3.2h-38.7v3.1h38.7v3.2h-38.7v3.2h38.7V61h-38.7h-27.5V39h27.5
				H356.3z M290.2,73.7v-3.2h66.1v3.2H290.2z M356.3,76.9V80h-66.1v-3.1H356.3z M290.2,67.4v-3.2h66.1v3.2H290.2z M293.2,86.9
				c7.3,0,13.3,5.6,13.8,12.8c0.4,0,0.8-0.1,1.2-0.1c0.3,0,0.6,0,1,0c0.1,0,0.1,0,0.2,0c0,0,0,0,0,0c0.6-7.2,6.5-12.8,13.8-12.8
				c7.3,0,13.3,5.6,13.8,12.8c0.4,0,0.8-0.1,1.2-0.1c0.4,0,0.8,0,1.1,0.1l0,0c0,0,0.1,0,0.1,0c0.6-7.2,6.5-12.8,13.8-12.8
				c7.7,0,13.9,6.2,13.9,13.9c0,7.7-6.2,13.9-13.9,13.9c-0.4,0-0.8,0-1.2-0.1c-0.6,7.2-6.5,12.8-13.8,12.8
				c-7.3,0-13.2-5.6-13.8-12.7l0,0c0,0,0,0,0-0.1c-0.4,0-0.8,0.1-1.2,0.1c-0.4,0-0.8,0-1.2-0.1c-0.6,7.2-6.5,12.8-13.8,12.8
				c-7.2,0-13.2-5.6-13.8-12.6l0,0c0,0,0-0.1,0-0.2c-0.4,0-0.8,0.1-1.2,0.1c-7.7,0-13.9-6.2-13.9-13.9
				C279.3,93.1,285.5,86.9,293.2,86.9z"/>
			<path class="st0" d="M296.8,111.8c4.1-1.3,7.1-4.9,7.8-9.2C300.5,103.9,297.4,107.4,296.8,111.8z"/>
			<path class="st0" d="M319.6,111.8c-0.7-4.3-3.7-7.9-7.8-9.2C312.5,106.9,315.5,110.5,319.6,111.8z"/>
			<path class="st0" d="M294.4,112.2c0.6-5.8,4.8-10.6,10.3-12c-0.4-6.1-5.4-10.9-11.5-10.9c-6.4,0-11.6,5.2-11.6,11.6
				c0,6.4,5.2,11.6,11.6,11.6c0.4,0,0.8,0,1.2-0.1C294.4,112.3,294.4,112.2,294.4,112.2L294.4,112.2z"/>
			<path class="st0" d="M308.2,125.1c6.2,0,11.2-4.8,11.5-10.9c-5.6-1.5-9.8-6.3-10.3-12.2c0,0-0.1,0-0.1,0c-0.4,0-0.7-0.1-1.1-0.1
				c-0.4,0-0.8,0-1.2,0.1c-0.5,5.9-4.7,10.7-10.3,12.2C297,120.3,302,125.1,308.2,125.1z"/>
			<path class="st0" d="M338.3,125.1c6.2,0,11.2-4.8,11.5-10.9c-5.6-1.5-9.8-6.3-10.3-12.2c0,0,0,0-0.1,0c-0.4,0-0.8-0.1-1.2-0.1
				c-0.4,0-0.8,0-1.2,0.1c-0.5,5.9-4.7,10.7-10.3,12.2C327.1,120.3,332.1,125.1,338.3,125.1z"/>
			<path class="st0" d="M324.4,112.3C324.4,112.3,324.4,112.3,324.4,112.3L324.4,112.3c0.6-6,4.8-10.7,10.3-12.2
				c-0.4-6.1-5.4-10.9-11.5-10.9c-6.2,0-11.2,4.8-11.5,10.9c0,0,0.1,0,0.1,0l0,0c5.5,1.5,9.7,6.3,10.2,12.2c0.4,0,0.8,0.1,1.2,0.1
				C323.6,112.4,324,112.4,324.4,112.3z"/>
			<path class="st0" d="M349.7,111.8c-0.7-4.3-3.7-7.9-7.8-9.2C342.5,106.9,345.6,110.5,349.7,111.8z"/>
			<path class="st0" d="M326.8,111.8c4.1-1.3,7.1-4.9,7.8-9.2C330.6,103.9,327.5,107.4,326.8,111.8z"/>
			<path class="st0" d="M364.9,100.8c0-6.4-5.2-11.6-11.6-11.6c-6.2,0-11.2,4.8-11.5,10.9c0,0,0,0,0.1,0l0,0
				c5.6,1.5,9.7,6.3,10.3,12.2c0.4,0,0.8,0.1,1.2,0.1C359.7,112.4,364.9,107.2,364.9,100.8z"/>
			<path class="st1" d="M265.6,125.5c-0.1,0.1-0.1,0.2,0,0.4l1.2,1.5l6.2-5.2l-1.4-1.7L265.6,125.5z"/>
			<path class="st1" d="M323.2,0c-44.7,0-80.9,36.2-80.9,80.9c0,44.7,36.2,80.9,80.9,80.9c44.7,0,80.9-36.2,80.9-80.9
				C404.2,36.2,367.9,0,323.2,0z M380.5,34.1c0.2-0.2,0.4-0.2,0.6-0.1c0.2,0,0.6,0.1,0.9,0.1c0.1,0,0.2,0,0.2,0
				c0.3,0,0.4,0.1,0.6,0.3l1.9,2.5c0.1,0.2,0.2,0.4,0.2,0.6l0,0c0,0,0,0.1,0,0.3c0,0.3-0.1,0.7-0.1,0.8c0,0.2-0.1,0.4-0.3,0.5
				l-1.8,1.3l-1.3-1.7l1.2-0.9c0.1-0.1,0.1-0.2,0-0.4l-1-1.3c-0.1-0.2-0.2-0.2-0.4-0.1l-1.5,1.1c0.2,0.6,1.2,3.5,1.2,3.7
				c0.1,0.4,0,0.7-0.3,1l-3.5,2.6c-0.2,0.1-0.4,0.2-0.6,0.1c-0.1,0-0.5-0.1-1.1-0.2l0,0c-0.3,0-0.4-0.1-0.6-0.3l-1.9-2.5
				c-0.1-0.2-0.2-0.4-0.2-0.6c0-0.1,0-0.2,0.1-0.4c0-0.3,0.1-0.7,0.1-0.8c0-0.2,0.1-0.4,0.3-0.5l1.8-1.4l1.3,1.7l-1.3,0.9
				c-0.1,0.1-0.1,0.2,0,0.4l1,1.3c0.1,0.2,0.2,0.2,0.4,0.1l2.1-1.6c-0.2-0.5-1.1-3.5-1.2-3.7c-0.1-0.2-0.1-0.7,0.3-1L380.5,34.1z
				 M377.7,28.6l-1.4,1.5L374,28c-0.1-0.1-0.3-0.1-0.4,0l-2,2l1.5,1.5l-1.4,1.4l-1.5-1.5l-2.1,2.2l2.4,2.3l-1.4,1.5l-3.9-3.8
				l8.5-8.8L377.7,28.6z M363.9,19.7l-1.1-0.8l1.2-1.7l4.5,3.1l-1.2,1.7l-1.4-1l-5.8,8.3l-1.7-1.2l5.7-8.1
				C364,19.9,364,19.8,363.9,19.7z M347.6,22.5L347.6,22.5L347.6,22.5l7.1-9.4c0.2-0.3,0.5-0.4,0.9-0.2l2.3,1.1l-3.3,12l0,0
				c0,0-0.1,0-0.1,0l-1.7-0.9l0.7-2.5l-2.2-1.1c-0.1-0.1-0.3,0-0.3,0.1c-0.1,0.1-1.5,1.9-1.5,1.9L347.6,22.5
				C347.7,22.5,347.6,22.5,347.6,22.5L347.6,22.5L347.6,22.5z M343.1,10.1l-1.3-0.4l0.6-2l5.2,1.6l-0.6,2l-1.6-0.5l-3,9.7l-2-0.6
				l2.9-9.5C343.3,10.3,343.2,10.2,343.1,10.1z M328.6,13.9l2.1,0.2l-0.2,1.6c0,0.2,0.1,0.3,0.2,0.3l1.6,0.2c0.2,0,0.3,0,0.3-0.2
				l0.3-2.6c-0.5-0.2-3.4-1.6-3.5-1.7c-0.2-0.1-0.6-0.4-0.5-0.9l0.4-3.5c0-0.2,0.1-0.4,0.3-0.5c0.1-0.1,0.5-0.4,0.7-0.6
				c0.1-0.1,0.1-0.1,0.2-0.1c0.2-0.2,0.4-0.2,0.6-0.2l3.2,0.4c0.2,0,0.4,0.1,0.6,0.3l0,0c0,0,0.1,0.1,0.2,0.2
				c0.2,0.2,0.4,0.5,0.5,0.7c0.1,0.2,0.2,0.3,0.2,0.6l-0.3,2.2l-2.1-0.2l0.2-1.5c0-0.2-0.1-0.3-0.2-0.3L331.7,8
				c-0.2,0-0.3,0-0.3,0.2l-0.2,1.9c0.5,0.2,3.4,1.6,3.5,1.6c0.4,0.2,0.5,0.5,0.5,0.9l-0.5,4.3c0,0.2-0.1,0.4-0.3,0.5
				c-0.1,0.1-0.4,0.3-0.9,0.7l0,0c-0.2,0.2-0.4,0.2-0.6,0.2l-3.1-0.4c-0.2,0-0.4-0.1-0.6-0.3c0-0.1-0.1-0.2-0.2-0.3
				c-0.2-0.2-0.4-0.5-0.5-0.6c-0.1-0.2-0.2-0.3-0.2-0.6L328.6,13.9z M381.2,80.9c0,32-25.9,57.9-57.9,57.9
				c-32,0-57.9-25.9-57.9-57.9c0-32,25.9-57.9,57.9-57.9C355.2,23,381.2,48.9,381.2,80.9z M314.4,5.9c0.2,0,0.4,0,0.5,0.1l0,0
				c0.5,0.4,0.8,0.6,1,0.7c0.2,0.1,0.2,0.2,0.3,0.4l0,0c0.1,0.7,1.4,9,1.4,9c0,0.2,0,0.3-0.1,0.5l-0.1,0.1c-0.2,0.2-0.5,0.7-0.6,0.9
				c-0.1,0.2-0.2,0.2-0.4,0.3c0,0-4.8,0.7-4.8,0.7l-1.8-12.1L314.4,5.9z M303.7,7.9l0.6,2l-2.9,0.9c-0.2,0.1-0.2,0.2-0.2,0.3
				l0.8,2.7l2-0.6l0.6,1.9l-2,0.6l0.9,2.9l3.1-1l0.6,2l-5.2,1.6l-3.6-11.7L303.7,7.9z M291.9,12.1l0.9,1.8l-1.5,0.8l4.6,9l-1.9,1
				l-4.5-8.8c-0.1-0.2-0.2-0.2-0.4-0.1l-1.2,0.6l-0.9-1.8L291.9,12.1z M281.5,18l6.8,10.1l-1.8,1.2l-6.8-10.1L281.5,18z M271.1,26.4
				c0.1-0.1,0.3-0.2,0.5-0.1l0,0l0,0l5.1,3.1l-4.2-4.4l1.6-1.5l8.4,8.9l-1.9,1.7l-5.4-3.3l4.2,4.4l-1.6,1.5l-8.4-8.9L271.1,26.4z
				 M262.3,36.3l7.9,5.9c0.1,0.1,0.2,0.1,0.4-0.1l1-1.3c0.1-0.2,0.1-0.3,0-0.4l-7.9-5.9l1.3-1.7l8.5,6.4c0.2,0.2,0.3,0.3,0.3,0.5
				c0,0.2,0.1,0.7,0.1,1l0,0.1c0,0.3,0,0.4-0.2,0.6l-1.9,2.5c-0.2,0.2-0.3,0.3-0.6,0.3l0,0c-0.6,0.1-1,0.1-1.1,0.2
				c-0.2,0-0.4,0-0.6-0.1L261,38L262.3,36.3z M259.4,80.7l-5-3.7l-5.1,3.7l1.9-6.1l-5-3.7l6.2-0.1l2-6l1.9,6l6.2,0l-5,3.8
				L259.4,80.7z M267.2,129.5c-0.1,0-0.5,0-1.1-0.1l0,0c-0.3,0-0.4-0.1-0.6-0.3l-2-2.4c-0.2-0.2-0.2-0.4-0.2-0.6c0-0.1,0-0.2,0-0.4
				c0-0.3,0.1-0.7,0.1-0.8c0-0.2,0.1-0.4,0.3-0.5l6.9-5.8c0.2-0.2,0.3-0.2,0.6-0.2c0.2,0,0.6,0.1,0.9,0.1c0.1,0,0.2,0,0.2,0
				c0.3,0,0.4,0.1,0.6,0.3l2,2.5c0.2,0.2,0.2,0.4,0.2,0.6c0,0,0,0.1,0,0.3c0,0.3-0.1,0.7-0.1,0.8c0,0.2-0.1,0.4-0.3,0.5l-6.9,5.8
				C267.6,129.5,267.4,129.5,267.2,129.5z M274.5,138.4l-3.5-3.2l8.2-9.1l1.6,1.4l-6.8,7.6l1.9,1.7L274.5,138.4z M281.9,144
				l-1.8-1.2l2.2-3.3l2.8-8.1l1.8,1.2l-1.5,4.2l3.4-2.9l1.8,1.2l-6.6,5.6L281.9,144z M296.5,151.5l-2-0.9l3-6.8l-2.5,2.6l-0.9-0.4
				l0.2-3.6l-3,6.8l-2-0.9l4.9-11.2l2,0.9c0.2,0.1,0.3,0.2,0.3,0.4l0,0l0,0l-0.2,3.6l2.7-2.8l2.3,1L296.5,151.5z M311.3,144.6
				l-0.9,3.8c-0.1,0.2-0.2,0.4-0.4,0.5c-0.1,0.1-0.4,0.3-0.9,0.6l0,0c-0.2,0.1-0.4,0.2-0.6,0.1l-2.3-0.6c-0.2,0-0.3,0-0.3,0.2
				l-1.2,4.7l-2.1-0.5l2.9-11.9l4.6,1.1c0.2,0.1,0.4,0.2,0.5,0.4c0,0,0.1,0.1,0.2,0.2c0.2,0.2,0.4,0.6,0.4,0.7
				C311.3,144.2,311.3,144.3,311.3,144.6z M317.2,156l-2.1-0.2l1.1-12.2l2.1,0.2L317.2,156z M329.6,155c-0.1,0.1-0.3,0.4-0.7,0.8
				l0,0c-0.2,0.2-0.3,0.3-0.6,0.3l-3.1,0.1c-0.3,0-0.4-0.1-0.6-0.2c-0.1,0-0.2-0.1-0.3-0.2c-0.2-0.2-0.5-0.4-0.6-0.5
				c-0.2-0.2-0.3-0.3-0.3-0.5l-0.4-9c0-0.3,0.1-0.4,0.2-0.6c0.1-0.1,0.4-0.5,0.6-0.7c0.1-0.1,0.1-0.1,0.1-0.2
				c0.2-0.2,0.3-0.3,0.6-0.3l3.2-0.1c0.2,0,0.4,0.1,0.6,0.2l0,0c0,0,0.1,0.1,0.2,0.2c0.2,0.2,0.5,0.5,0.6,0.6
				c0.2,0.2,0.3,0.3,0.3,0.5l0.1,2.5l-2.1,0.1l-0.1-2l-2.2,0.1l0.3,7.8c0,0.2,0.1,0.2,0.3,0.2l1.9-0.1l-0.1-1.7l2.1-0.1l0.1,2.2
				C329.9,154.7,329.8,154.8,329.6,155z M346.9,152.6l-3.1-9.4c-0.1-0.2-0.2-0.2-0.3-0.1l-1.3,0.4l-0.7-2l5.2-1.7l0.6,2l-1.6,0.5
				l3.2,9.6L346.9,152.6z M356.7,148.5l-5.8-10.8l4.8-2.6l1,1.8l-2.7,1.4c-0.2,0.1-0.2,0.2-0.1,0.3l1.3,2.5l1.9-1l0.9,1.7l-1.9,1
				l1.4,2.7l2.9-1.6l1,1.8L356.7,148.5z M372.9,137.7C372.9,137.8,372.9,137.8,372.9,137.7l-1.6,1.2l-2-1.7l-2,1.5
				c-0.1,0.1-0.1,0.2-0.1,0.3c0.1,0.1,1.1,2.1,1.1,2.1l-1.5,1.2c0,0,0,0-0.1,0.1l0,0l0,0l0,0l0-0.1l-5.4-10.5
				c-0.2-0.3-0.1-0.6,0.2-0.9l2-1.6L372.9,137.7L372.9,137.7z M381.4,128.9l-5.6-4.9l1.7,3.1l-0.7,0.8l-3.4-1.3l5.6,4.9l-1.4,1.6
				l-9.2-8l1.5-1.7c0.1-0.1,0.3-0.2,0.5-0.1l0,0l0,0l3.4,1.3l-1.9-3.5l1.7-1.9l9.2,8L381.4,128.9z M392,77.1l-5.1,3.7l1.9-6.1
				l-5-3.7l6.2-0.1l2-6l1.9,6l6.2,0l-5,3.8l1.9,6L392,77.1z"/>
			<path class="st1" d="M315.2,16c0.2,0,0.3-0.1,0.2-0.3l-1.1-7.5c0-0.2-0.1-0.2-0.3-0.2l-1.9,0.3l1.2,8L315.2,16z"/>
			<path class="st1" d="M366.3,137.2L366.3,137.2l1.4-1.1c0.1-0.1,0.1-0.1,0-0.2c0,0-4-3.8-4-3.8l-0.2,0.2L366.3,137.2z"/>
			<path class="st1" d="M354,20.4c0,0,1.7-5.2,1.7-5.2l-0.3-0.1l-3.2,4.7l0,0l1.6,0.8C353.9,20.5,354,20.5,354,20.4z"/>
			<path class="st1" d="M308.8,144.5L307,144l-0.7,3l2.1,0.5l0.7-2.7C309,144.6,309,144.5,308.8,144.5z"/>
			<path class="st2" d="M308.2,125.1c-6.2,0-11.2-4.8-11.5-10.9c0,0,0,0,0,0c0-0.2,0-0.5,0-0.7c0-0.6,0-1.2,0.1-1.7c0,0,0,0,0,0
				c0.7-4.3,3.7-7.9,7.8-9.2c0.1-0.6,0.1-1.1,0.1-1.7c0-0.2,0-0.5,0-0.7c-5.5,1.4-9.7,6.2-10.3,12l0,0c0,0.1,0,0.1,0,0.2
				c0,0.4-0.1,0.8-0.1,1.2c0,0.4,0,0.7,0,1.1c0,0,0,0.1,0,0.2l0,0c0.6,7.1,6.6,12.6,13.8,12.6c7.3,0,13.3-5.6,13.8-12.8
				c-0.8-0.1-1.6-0.2-2.3-0.4C319.4,120.3,314.3,125.1,308.2,125.1z"/>
			<path class="st2" d="M307,102c0.4,0,0.8-0.1,1.2-0.1c0.4,0,0.8,0,1.1,0.1c0,0,0.1,0,0.1,0c0.8,0.1,1.6,0.3,2.4,0.5c0,0,0,0,0,0
				c4.1,1.3,7.1,4.9,7.8,9.2c0.8,0.3,1.6,0.4,2.4,0.5c-0.5-5.9-4.7-10.7-10.2-12.2l0,0c0,0-0.1,0-0.1,0c-0.7-0.2-1.5-0.3-2.3-0.4
				l0,0c0,0,0,0,0,0c-0.1,0-0.1,0-0.2,0c-0.3,0-0.6,0-1,0c-0.4,0-0.8,0-1.2,0.1c0,0.4,0.1,0.7,0.1,1.1C307,101.2,307,101.6,307,102z
				"/>
			<path class="st3" d="M338.3,125.1c-6.2,0-11.2-4.8-11.5-10.9c0,0,0,0,0,0c0-0.2,0-0.5,0-0.7c0-0.6,0-1.2,0.1-1.7c0,0,0,0,0,0
				c0.7-4.3,3.7-7.9,7.8-9.2c0.1-0.6,0.1-1.1,0.1-1.7c0-0.2,0-0.5,0-0.7c-5.6,1.4-9.8,6.2-10.3,12.1l0,0c0,0,0,0.1,0,0.1
				c0,0.4-0.1,0.8-0.1,1.2c0,0.4,0,0.7,0,1.1c0,0,0,0,0,0.1l0,0c0.6,7.1,6.5,12.7,13.8,12.7c7.3,0,13.3-5.6,13.8-12.8
				c-0.8-0.1-1.6-0.2-2.3-0.4C349.4,120.3,344.4,125.1,338.3,125.1z"/>
			<path class="st3" d="M337,102c0.4,0,0.8-0.1,1.2-0.1c0.4,0,0.8,0,1.2,0.1c0,0,0,0,0.1,0c0.8,0.1,1.6,0.3,2.4,0.5c0,0,0,0,0,0
				c4.1,1.3,7.1,4.9,7.8,9.2c0.8,0.3,1.6,0.4,2.4,0.5c-0.5-5.9-4.7-10.7-10.3-12.2l0,0c0,0,0,0-0.1,0c-0.7-0.2-1.5-0.3-2.3-0.4
				c0,0-0.1,0-0.1,0l0,0c-0.4,0-0.8-0.1-1.1-0.1c-0.4,0-0.8,0-1.2,0.1c0,0.4,0.1,0.7,0.1,1.1C337.1,101.2,337.1,101.6,337,102z"/>
			<path class="st4" d="M293.2,114.7c0.4,0,0.8,0,1.2-0.1c0-0.4,0-0.7,0-1.1c0-0.4,0-0.8,0.1-1.2c-0.4,0-0.8,0.1-1.2,0.1
				c-6.4,0-11.6-5.2-11.6-11.6c0-6.4,5.2-11.6,11.6-11.6c6.2,0,11.2,4.8,11.5,10.9c0,0.2,0,0.5,0,0.7c0,0.6-0.1,1.2-0.1,1.7
				c-0.7,4.3-3.7,7.9-7.8,9.2c0,0,0,0,0,0c-0.1,0.6-0.1,1.1-0.1,1.7c0,0.2,0,0.5,0,0.7c0,0,0,0,0,0c5.6-1.5,9.8-6.3,10.3-12.2
				c0-0.4,0.1-0.8,0.1-1.2c0-0.4,0-0.7-0.1-1.1c-0.6-7.2-6.5-12.8-13.8-12.8c-7.7,0-13.9,6.2-13.9,13.9
				C279.3,108.5,285.5,114.7,293.2,114.7z"/>
			<path class="st5" d="M324.4,112.3c-0.4,0-0.8,0.1-1.2,0.1c-0.4,0-0.8,0-1.2-0.1c-0.8-0.1-1.6-0.3-2.4-0.5
				c-4.1-1.3-7.1-4.9-7.8-9.2c0,0,0,0,0,0c-0.8-0.3-1.6-0.4-2.4-0.5c0.5,5.9,4.7,10.7,10.3,12.2c0.7,0.2,1.5,0.3,2.3,0.4
				c0.4,0,0.8,0.1,1.2,0.1c0.4,0,0.8,0,1.2-0.1c0-0.4,0-0.7,0-1.1C324.4,113.1,324.4,112.7,324.4,112.3z"/>
			<path class="st5" d="M311.7,100.1c0.4-6.1,5.4-10.9,11.5-10.9c6.2,0,11.2,4.8,11.5,10.9c0,0.2,0,0.5,0,0.7c0,0.6-0.1,1.2-0.1,1.7
				c-0.7,4.3-3.7,7.9-7.8,9.2c0,0,0,0,0,0c-0.1,0.6-0.1,1.1-0.1,1.7c0,0.2,0,0.5,0,0.7c0,0,0,0,0,0c5.6-1.5,9.8-6.3,10.3-12.2
				c0-0.4,0.1-0.8,0.1-1.2c0-0.4,0-0.7-0.1-1.1c-0.6-7.2-6.5-12.8-13.8-12.8c-7.3,0-13.3,5.6-13.8,12.8l0,0
				C310.2,99.8,311,99.9,311.7,100.1z"/>
			<path class="st6" d="M341.8,100.1c0.4-6.1,5.4-10.9,11.5-10.9c6.4,0,11.6,5.2,11.6,11.6c0,6.4-5.2,11.6-11.6,11.6
				c-0.4,0-0.8,0-1.2-0.1c-0.8-0.1-1.6-0.3-2.4-0.5c-4.1-1.3-7.1-4.9-7.8-9.2c0,0,0,0,0,0c-0.8-0.3-1.6-0.4-2.4-0.5
				c0.5,5.9,4.7,10.7,10.3,12.2c0.7,0.2,1.5,0.3,2.3,0.4c0.4,0,0.8,0.1,1.2,0.1c7.7,0,13.9-6.2,13.9-13.9c0-7.7-6.2-13.9-13.9-13.9
				c-7.3,0-13.3,5.6-13.8,12.8C340.3,99.8,341,99.9,341.8,100.1z"/>
			<path class="st0" d="M377.3,37.2c0.1,0.2,1,3.1,1.2,3.7l-2.1,1.6c-0.1,0.1-0.2,0.1-0.4-0.1l-1-1.3c-0.1-0.2-0.1-0.3,0-0.4
				l1.3-0.9l-1.3-1.7l-1.8,1.4c-0.2,0.1-0.3,0.3-0.3,0.5c0,0.1-0.1,0.5-0.1,0.8c0,0.2,0,0.3-0.1,0.4c0,0.3,0,0.4,0.2,0.6l1.9,2.5
				c0.1,0.2,0.3,0.3,0.6,0.3l0,0c0.6,0.1,1,0.1,1.1,0.2c0.2,0,0.4,0,0.6-0.1l3.5-2.6c0.3-0.2,0.4-0.6,0.3-1
				c-0.1-0.2-1.1-3.1-1.2-3.7l1.5-1.1c0.1-0.1,0.3-0.1,0.4,0.1l1,1.3c0.1,0.2,0.1,0.3,0,0.4l-1.2,0.9l1.3,1.7l1.8-1.3
				c0.2-0.1,0.3-0.3,0.3-0.5c0-0.1,0.1-0.5,0.1-0.8c0-0.1,0-0.2,0-0.3l0,0c0-0.3,0-0.4-0.2-0.6l-1.9-2.5c-0.1-0.2-0.3-0.3-0.6-0.3
				c0,0-0.1,0-0.2,0c-0.3,0-0.7-0.1-0.9-0.1c-0.2,0-0.4,0-0.6,0.1l-2.8,2.1C377.2,36.5,377.2,37,377.3,37.2z"/>
			<path class="st0" d="M307.3,19.6l-0.6-2l-3.1,1l-0.9-2.9l2-0.6l-0.6-1.9l-2,0.6l-0.8-2.7c-0.1-0.2,0-0.3,0.2-0.3l2.9-0.9l-0.6-2
				l-5.2,1.6l3.6,11.7L307.3,19.6z"/>
			
				<rect x="282.9" y="17.5" transform="matrix(0.8288 -0.5595 0.5595 0.8288 35.3931 162.9554)" class="st0" width="2.1" height="12.2"/>
			<path class="st0" d="M369.1,37.4l1.4-1.5l-2.4-2.3l2.1-2.2l1.5,1.5l1.4-1.4l-1.5-1.5l2-2c0.1-0.1,0.2-0.1,0.4,0l2.2,2.1l1.4-1.5
				l-3.9-3.8l-8.5,8.8L369.1,37.4z"/>
			<polygon class="st0" points="400.2,70.9 394,71 392.1,65 390.1,71 383.9,71.1 388.9,74.8 386.9,80.8 392,77.1 397,80.7 
				395.1,74.7 			"/>
			<path class="st0" d="M316.3,18c0.2,0,0.3-0.1,0.4-0.3c0.1-0.2,0.5-0.7,0.6-0.9l0.1-0.1c0.1-0.2,0.2-0.3,0.1-0.5
				c0,0-1.3-8.4-1.4-9l0,0c0-0.2-0.1-0.3-0.3-0.4c-0.1-0.1-0.4-0.3-1-0.7l0,0c-0.2-0.1-0.3-0.2-0.5-0.1l-4.8,0.7l1.8,12.1
				C311.5,18.7,316.3,18,316.3,18z M314,8c0.2,0,0.3,0,0.3,0.2l1.1,7.5c0,0.2,0,0.3-0.2,0.3l-1.9,0.3l-1.2-8L314,8z"/>
			<path class="st0" d="M347.7,22.5l1.7,0.9c0,0,1.4-1.8,1.5-1.9c0.1-0.1,0.2-0.1,0.3-0.1l2.2,1.1l-0.7,2.5l1.7,0.9c0,0,0.1,0,0.1,0
				l0,0l3.3-12l-2.3-1.1c-0.3-0.2-0.6-0.1-0.9,0.2l-7.1,9.4L347.7,22.5L347.7,22.5L347.7,22.5L347.7,22.5
				C347.6,22.5,347.7,22.5,347.7,22.5z M352.2,19.7l3.2-4.7l0.3,0.1c0,0-1.7,5.2-1.7,5.2c0,0.1-0.1,0.2-0.2,0.1L352.2,19.7
				L352.2,19.7z"/>
			<path class="st0" d="M329,17.3c0.1,0.1,0.2,0.2,0.2,0.3c0.2,0.2,0.3,0.3,0.6,0.3l3.1,0.4c0.2,0,0.4,0,0.6-0.2l0,0
				c0.5-0.4,0.8-0.6,0.9-0.7c0.2-0.1,0.3-0.3,0.3-0.5l0.5-4.3c0-0.4-0.1-0.7-0.5-0.9c-0.2-0.1-3-1.4-3.5-1.6l0.2-1.9
				c0-0.2,0.1-0.2,0.3-0.2l1.6,0.2c0.2,0,0.3,0.1,0.2,0.3l-0.2,1.5l2.1,0.2l0.3-2.2c0-0.2,0-0.4-0.2-0.6c-0.1-0.1-0.3-0.4-0.5-0.7
				c-0.1-0.1-0.2-0.2-0.2-0.2l0,0c-0.2-0.2-0.3-0.3-0.6-0.3l-3.2-0.4c-0.2,0-0.4,0-0.6,0.2c0,0-0.1,0.1-0.2,0.1
				c-0.2,0.2-0.6,0.5-0.7,0.6c-0.2,0.2-0.3,0.3-0.3,0.5l-0.4,3.5c-0.1,0.5,0.3,0.8,0.5,0.9c0.2,0.1,3,1.4,3.5,1.7l-0.3,2.6
				c0,0.2-0.1,0.2-0.3,0.2l-1.6-0.2c-0.2,0-0.3-0.1-0.2-0.3l0.2-1.6l-2.1-0.2l-0.3,2.3c0,0.2,0,0.4,0.2,0.6
				C328.6,16.8,328.8,17.1,329,17.3z"/>
			<path class="st0" d="M358.3,28.2l1.7,1.2l5.8-8.3l1.4,1l1.2-1.7l-4.5-3.1l-1.2,1.7l1.1,0.8c0.2,0.1,0.2,0.2,0.1,0.4L358.3,28.2z"
				/>
			<path class="st0" d="M340.3,19.9l2,0.6l3-9.7l1.6,0.5l0.6-2l-5.2-1.6l-0.6,2l1.3,0.4c0.2,0.1,0.2,0.2,0.2,0.3L340.3,19.9z"/>
			<path class="st0" d="M289.2,15.8c0.2-0.1,0.3-0.1,0.4,0.1l4.5,8.8l1.9-1l-4.6-9l1.5-0.8l-0.9-1.8l-4.9,2.5l0.9,1.8L289.2,15.8z"
				/>
			<polygon class="st0" points="256.4,71 254.5,65 252.5,71 246.3,71.1 251.2,74.8 249.3,80.8 254.4,77.1 259.4,80.7 257.5,74.7 
				262.6,70.9 			"/>
			<path class="st0" d="M279.4,35.4l-4.2-4.4l5.4,3.3l1.9-1.7l-8.4-8.9l-1.6,1.5l4.2,4.4l-5.1-3.1l0,0l0,0c-0.2-0.1-0.4-0.1-0.5,0.1
				l-1.6,1.5l8.4,8.9L279.4,35.4z"/>
			<path class="st0" d="M270.1,44.5c0.1,0,0.5-0.1,1.1-0.2l0,0c0.3,0,0.4-0.1,0.6-0.3l1.9-2.5c0.2-0.2,0.2-0.4,0.2-0.6l0-0.1
				c0-0.3-0.1-0.8-0.1-1c0-0.2-0.1-0.4-0.3-0.5l-8.5-6.4l-1.3,1.7l7.9,5.9c0.1,0.1,0.1,0.2,0,0.4l-1,1.3c-0.1,0.2-0.2,0.2-0.4,0.1
				l-7.9-5.9L261,38l8.5,6.4C269.7,44.5,269.9,44.5,270.1,44.5z"/>
			<path class="st0" d="M275,123c0-0.1,0.1-0.5,0.1-0.8c0-0.1,0-0.2,0-0.3c0-0.3,0-0.4-0.2-0.6l-2-2.5c-0.2-0.2-0.3-0.3-0.6-0.3
				c0,0-0.1,0-0.2,0c-0.3,0-0.7-0.1-0.9-0.1c-0.2,0-0.4,0-0.6,0.2l-6.9,5.8c-0.2,0.2-0.2,0.3-0.3,0.5c0,0.1,0,0.5-0.1,0.8
				c0,0.2,0,0.3,0,0.4c0,0.3,0,0.4,0.2,0.6l2,2.4c0.2,0.2,0.3,0.3,0.6,0.3l0,0c0.6,0.1,1,0.1,1.1,0.1c0.2,0,0.4,0,0.6-0.2l6.9-5.8
				C274.9,123.4,274.9,123.2,275,123z M266.8,127.4l-1.2-1.5c-0.1-0.1-0.1-0.3,0-0.4l6-5l1.4,1.7L266.8,127.4z"/>
			<path class="st0" d="M310.7,143.3c-0.1-0.1-0.1-0.2-0.2-0.2c-0.1-0.2-0.3-0.3-0.5-0.4l-4.6-1.1l-2.9,11.9l2.1,0.5l1.2-4.7
				c0-0.2,0.1-0.2,0.3-0.2l2.3,0.6c0.2,0.1,0.4,0,0.6-0.1l0,0c0.5-0.3,0.8-0.5,0.9-0.6c0.2-0.1,0.3-0.2,0.4-0.5l0.9-3.8
				c0.1-0.2,0-0.4-0.1-0.6C311.1,143.9,310.9,143.5,310.7,143.3z M309,144.8l-0.7,2.7l-2.1-0.5l0.7-3l1.8,0.4
				C309,144.5,309,144.6,309,144.8z"/>
			<path class="st0" d="M347.3,141.7l-0.6-2l-5.2,1.7l0.7,2l1.3-0.4c0.2-0.1,0.3,0,0.3,0.1l3.1,9.4l2-0.7l-3.2-9.6L347.3,141.7z"/>
			<polygon class="st0" points="288.9,134 285.5,136.9 286.9,132.7 285.2,131.5 282.3,139.6 280.1,142.8 281.9,144 284.1,140.8 
				290.7,135.2 			"/>
			<path class="st0" d="M327.6,152.3l0.1,1.7l-1.9,0.1c-0.2,0-0.3-0.1-0.3-0.2l-0.3-7.8l2.2-0.1l0.1,2l2.1-0.1l-0.1-2.5
				c0-0.3-0.1-0.4-0.3-0.5c-0.1-0.1-0.4-0.4-0.6-0.6c-0.1-0.1-0.2-0.2-0.2-0.2l0,0c-0.2-0.2-0.4-0.2-0.6-0.2l-3.2,0.1
				c-0.2,0-0.4,0.1-0.6,0.3c0,0-0.1,0.1-0.1,0.2c-0.2,0.2-0.5,0.6-0.6,0.7c-0.2,0.2-0.2,0.3-0.2,0.6l0.4,9c0,0.3,0.1,0.4,0.3,0.5
				c0.1,0.1,0.3,0.3,0.6,0.5c0.1,0.1,0.2,0.2,0.3,0.2c0.2,0.2,0.4,0.2,0.6,0.2l3.1-0.1c0.2,0,0.4-0.1,0.6-0.3l0,0
				c0.4-0.4,0.7-0.7,0.7-0.8c0.2-0.2,0.2-0.3,0.2-0.6l-0.1-2.2L327.6,152.3z"/>
			<path class="st0" d="M357.6,145.7l-1.4-2.7l1.9-1l-0.9-1.7l-1.9,1l-1.3-2.5c-0.1-0.2,0-0.3,0.1-0.3l2.7-1.4l-1-1.8l-4.8,2.6
				l5.8,10.8l4.8-2.6l-1-1.8L357.6,145.7z"/>
			<polygon class="st0" points="280.7,127.5 279.1,126.1 271,135.2 274.5,138.4 275.9,136.8 274,135.1 			"/>
			
				<rect x="310.6" y="148.8" transform="matrix(8.995869e-02 -0.9959 0.9959 8.995869e-02 138.9407 451.7644)" class="st0" width="12.2" height="2.1"/>
			<path class="st0" d="M372,121.2l1.9,3.5l-3.4-1.3l0,0l0,0c-0.2,0-0.4,0-0.5,0.1l-1.5,1.7l9.2,8l1.4-1.6l-5.6-4.9l3.4,1.3l0.7-0.8
				l-1.7-3.1l5.6,4.9l1.4-1.6l-9.2-8L372,121.2z"/>
			<path class="st0" d="M296.3,142.1l0.2-3.6l0,0l0,0c0-0.2-0.1-0.3-0.3-0.4l-2-0.9l-4.9,11.2l2,0.9l3-6.8l-0.2,3.6l0.9,0.4l2.5-2.6
				l-3,6.8l2,0.9l4.9-11.2l-2.3-1L296.3,142.1z"/>
			<path class="st0" d="M361.6,131.1c-0.3,0.2-0.4,0.5-0.2,0.9l5.4,10.5l0,0.1l0,0l0,0l0,0c0,0,0,0,0.1-0.1l1.5-1.2c0,0-1-2-1.1-2.1
				c-0.1-0.1,0-0.2,0.1-0.3l2-1.5l2,1.7l1.5-1.2c0,0,0.1,0,0.1-0.1l0,0l-9.4-8.2L361.6,131.1z M367.7,135.8c0.1,0.1,0.1,0.2,0,0.2
				l-1.4,1.1l0,0l-2.8-4.9l0.2-0.2C363.7,132.1,367.6,135.8,367.7,135.8z"/>
			<rect x="317.6" y="39" class="st1" width="38.7" height="3.2"/>
			<rect x="317.6" y="45.3" class="st1" width="38.7" height="3.2"/>
			<rect x="317.6" y="51.6" class="st1" width="38.7" height="3.2"/>
			<rect x="317.6" y="57.9" class="st1" width="38.7" height="3.1"/>
			<rect x="290.2" y="64.2" class="st1" width="66.1" height="3.2"/>
			<rect x="290.2" y="70.5" class="st1" width="66.1" height="3.2"/>
			<rect x="290.2" y="76.9" class="st1" width="66.1" height="3.1"/>
			<path class="st7" d="M290.2,61h27.5v-3.1v-3.2v-3.2v-3.1v-3.2v-3.2V39h-27.5V61z M295,58l-0.9-0.7l-0.9,0.7l0.4-1.1l-0.9-0.7h1.1
				l0.3-1l0.3,1h1.1l-0.9,0.7L295,58z M313.5,43l0.3-1l0.3,1h1.1l-0.9,0.7l0.4,1.1l-0.9-0.7l-0.9,0.7l0.4-1.1l-0.9-0.7H313.5z
				 M313.5,49.7l0.3-1l0.3,1h1.1l-0.9,0.7l0.4,1.1l-0.9-0.7l-0.9,0.7l0.4-1.1l-0.9-0.7H313.5z M313.5,56.3l0.3-1l0.3,1h1.1l-0.9,0.7
				l0.4,1.1l-0.9-0.7l-0.9,0.7l0.4-1.1l-0.9-0.7H313.5z M308.6,46.3l0.3-1l0.3,1h1.1l-0.9,0.7l0.3,1.1l-0.9-0.7l-0.9,0.7l0.4-1.1
				l-0.9-0.7H308.6z M308.6,53l0.3-1l0.3,1h1.1l-0.9,0.7l0.3,1.1l-0.9-0.7l-0.9,0.7l0.4-1.1l-0.9-0.7H308.6z M303.6,43l0.3-1l0.3,1
				h1.1l-0.9,0.7l0.3,1.1l-0.9-0.7l-0.9,0.7l0.4-1.1l-0.9-0.7H303.6z M303.6,49.7l0.3-1l0.3,1h1.1l-0.9,0.7l0.3,1.1l-0.9-0.7
				l-0.9,0.7l0.4-1.1l-0.9-0.7H303.6z M303.6,56.3l0.3-1l0.3,1h1.1l-0.9,0.7l0.3,1.1l-0.9-0.7l-0.9,0.7l0.4-1.1l-0.9-0.7H303.6z
				 M298.7,46.3l0.3-1l0.3,1h1.1l-0.9,0.7l0.4,1.1l-0.9-0.7l-0.9,0.7l0.4-1.1l-0.9-0.7H298.7z M298.7,53l0.3-1l0.3,1h1.1l-0.9,0.7
				l0.3,1.1l-0.9-0.7l-0.9,0.7l0.4-1.1l-0.9-0.7H298.7z M293.7,43l0.3-1l0.3,1h1.1l-0.9,0.7l0.3,1.1l-0.9-0.7l-0.9,0.7l0.4-1.1
				l-0.9-0.7H293.7z M293.7,49.7l0.3-1l0.3,1h1.1l-0.9,0.7l0.3,1.1l-0.9-0.7l-0.9,0.7l0.4-1.1l-0.9-0.7H293.7z"/>
			<polygon class="st0" points="293.2,44.7 294.1,44.1 295,44.7 294.6,43.7 295.5,43 294.4,43 294.1,42 293.7,43 292.6,43 
				293.5,43.7 			"/>
			<polygon class="st0" points="293.2,51.4 294.1,50.7 295,51.4 294.6,50.3 295.5,49.7 294.4,49.7 294.1,48.6 293.7,49.7 
				292.6,49.7 293.5,50.3 			"/>
			<polygon class="st0" points="294.4,56.3 294.1,55.3 293.7,56.3 292.6,56.3 293.5,57 293.2,58 294.1,57.4 295,58 294.6,57 
				295.5,56.3 			"/>
			<polygon class="st0" points="303.1,44.7 304,44.1 304.9,44.7 304.5,43.7 305.4,43 304.3,43 304,42 303.6,43 302.5,43 303.4,43.7 
							"/>
			<polygon class="st0" points="303.1,51.4 304,50.7 304.9,51.4 304.5,50.3 305.4,49.7 304.3,49.7 304,48.6 303.6,49.7 302.5,49.7 
				303.4,50.3 			"/>
			<polygon class="st0" points="303.1,58 304,57.4 304.9,58 304.5,57 305.4,56.3 304.3,56.3 304,55.3 303.6,56.3 302.5,56.3 
				303.4,57 			"/>
			<polygon class="st0" points="312.9,44.7 313.8,44.1 314.7,44.7 314.4,43.7 315.3,43 314.2,43 313.8,42 313.5,43 312.4,43 
				313.3,43.7 			"/>
			<polygon class="st0" points="312.9,51.4 313.8,50.7 314.7,51.4 314.4,50.3 315.3,49.7 314.2,49.7 313.8,48.6 313.5,49.7 
				312.4,49.7 313.3,50.3 			"/>
			<polygon class="st0" points="312.9,58 313.8,57.4 314.7,58 314.4,57 315.3,56.3 314.2,56.3 313.8,55.3 313.5,56.3 312.4,56.3 
				313.3,57 			"/>
			<polygon class="st0" points="298.1,48.1 299,47.4 299.9,48.1 299.6,47 300.5,46.3 299.4,46.3 299,45.3 298.7,46.3 297.6,46.3 
				298.5,47 			"/>
			<polygon class="st0" points="298.1,54.7 299,54.1 299.9,54.7 299.6,53.6 300.5,53 299.3,53 299,51.9 298.7,53 297.6,53 
				298.5,53.6 			"/>
			<polygon class="st0" points="308,48.1 308.9,47.4 309.8,48.1 309.4,47 310.3,46.3 309.2,46.3 308.9,45.3 308.6,46.3 307.5,46.3 
				308.4,47 			"/>
			<polygon class="st0" points="308,54.7 308.9,54.1 309.8,54.7 309.4,53.6 310.3,53 309.2,53 308.9,51.9 308.6,53 307.5,53 
				308.4,53.6 			"/>
		</g>
	</g>
</g>
<g>
	<path class="st0" d="M43,72.1c4,0,8.3,3.6,8.3,9c0,5.4-4.4,9-8.3,9s-8.3-3.6-8.3-9C34.7,75.6,39,72.1,43,72.1z M39.3,88.1
		c0.8,1.2,2.1,1.7,3.6,1.7s2.9-0.5,3.6-1.7c1.2-1.9,1.2-5.8,1.2-7c0-1.2,0-5-1.2-7c-0.7-1.2-2.1-1.7-3.6-1.7s-2.9,0.5-3.6,1.7
		c-1.2,2-1.2,5.8-1.2,7C38.1,82.3,38.1,86.1,39.3,88.1z"/>
	<path class="st0" d="M65.3,72.8h-2.2v-0.3h13.2V78h-0.2c-0.7-3.2-2.4-5.2-5.9-5.2h-2.1v8c2.8,0,3.8-1.2,4-3.5h0.2v7.3h-0.2
		c-0.1-1.2-0.4-3.6-4-3.6v8.3h2.3v0.3h-7.4v-0.3h2.2V72.8z"/>
	<path class="st0" d="M90,72.8h-2.2v-0.3h13.2V78h-0.2c-0.7-3.2-2.4-5.2-5.9-5.2H93v8c2.8,0,3.8-1.2,4-3.5h0.2v7.3H97
		c-0.1-1.2-0.4-3.6-4-3.6v8.3h2.3v0.3h-7.4v-0.3H90V72.8z"/>
	<path class="st0" d="M115,72.8h-2.2v-0.3h7.3v0.3h-2.2v16.6h2.2v0.3h-7.3v-0.3h2.2V72.8z"/>
	<path class="st0" d="M145.2,77.7H145c-0.6-2.6-1.9-5.3-4.9-5.3c-2.2,0-3,1.1-3.5,1.8c-0.9,1.5-1,4.8-1,7c0,3.5,0.1,5,0.8,6.5
		c0.6,1.4,1.7,2.1,3.7,2.1c2.5,0,4.5-1.4,5.4-5.1h0.2v5.1h-0.2c-0.2-0.2-0.3-0.4-0.9-0.4c-0.4,0-0.7,0.1-1.5,0.3
		c-0.3,0.1-1.5,0.4-2.8,0.4c-4.4,0-8-3.3-8-8.6c0-5.9,4.5-9.3,7.8-9.3c1.1,0,1.7,0.2,2.9,0.7c0.8,0.3,1.1,0.3,1.3,0.3
		c0.4,0,0.6-0.2,0.7-0.5h0.2V77.7z"/>
	<path class="st0" d="M160,72.8h-2.2v-0.3h7.3v0.3h-2.2v16.6h2.2v0.3h-7.3v-0.3h2.2V72.8z"/>
	<path class="st0" d="M184,71.9h0.2l7,17.5h1.7v0.3h-7.2v-0.3h2.3l-2.3-6h-5.9l-2.4,6h2.1v0.3h-4.1v-0.3h1.7L184,71.9z M185.6,83
		l-2.8-7.1l-2.8,7.1H185.6z"/>
	<path class="st0" d="M205.2,72.8H203v-0.3h7.3v0.3h-2.2v16.6h1.7c3.2,0,6.1-1.9,6.7-5.2h0.2v5.4H203v-0.3h2.2V72.8z"/>
</g>
<g>
	<path class="st0" d="M433.9,72c4,0,8.3,3.6,8.3,9c0,5.4-4.4,9-8.3,9s-8.3-3.6-8.3-9C425.6,75.5,429.9,72,433.9,72z M430.3,87.9
		c0.8,1.2,2.1,1.7,3.6,1.7s2.9-0.5,3.6-1.7c1.2-1.9,1.2-5.8,1.2-7c0-1.2,0-5-1.2-7c-0.7-1.2-2.1-1.7-3.6-1.7s-2.9,0.5-3.6,1.7
		c-1.2,2-1.2,5.8-1.2,7C429,82.2,429.1,86,430.3,87.9z"/>
	<path class="st0" d="M459.1,83.6c0,1.6,0.1,2.9,0.4,3.8c0.5,1.3,1.7,2.2,3.6,2.2c2.9,0,4.9-1.5,4.9-4.9V72.7h-2.2v-0.3h4.7v0.3
		h-2.2v12.1c0,3.4-2.1,5.2-5.3,5.2c-4.7,0-6.9-1.7-6.9-6.3V72.7H454v-0.3h7.3v0.3h-2.2V83.6z"/>
	<path class="st0" d="M487.4,72.7h-0.3c-3.3,0-5,2.5-5.5,5.5h-0.2v-5.8h14.9v5.8h-0.2c-0.5-3-2.2-5.5-5.5-5.5h-0.3v16.6h2.2v0.3
		h-7.3v-0.3h2.2V72.7z"/>
	<path class="st0" d="M509.7,72.7h-2.2v-0.3h13.2v5.5h-0.2c-0.7-3.2-2.4-5.2-5.9-5.2h-2.1v8c2.8,0,3.8-1.2,4-3.5h0.2v7.3h-0.2
		c-0.1-1.2-0.4-3.6-4-3.6v8.3h2.3v0.3h-7.4v-0.3h2.2V72.7z"/>
	<path class="st0" d="M534.6,72.7h-2.2v-0.3h7.3v0.3h-2.2v16.6h2.2v0.3h-7.3v-0.3h2.2V72.7z"/>
	<path class="st0" d="M557.1,72.7h-0.3c-3.3,0-5,2.5-5.5,5.5h-0.2v-5.8h14.9v5.8h-0.2c-0.5-3-2.2-5.5-5.5-5.5h-0.3v16.6h2.2v0.3H555
		v-0.3h2.2V72.7z"/>
	<path class="st0" d="M582.8,72.7h-0.3c-3.3,0-5,2.5-5.5,5.5h-0.2v-5.8h14.9v5.8h-0.2c-0.5-3-2.2-5.5-5.5-5.5h-0.3v16.6h2.2v0.3
		h-7.3v-0.3h2.2V72.7z"/>
	<path class="st0" d="M617,89.5h-14.2v-0.3h2.2V72.7h-2.2v-0.3h12.8v4.1h-0.2c-0.7-1.9-1.8-3.9-5-3.9H608v7.9c1.6,0,3.8,0,4.2-3.3
		h0.2v7h-0.2c-0.4-3.4-2.7-3.4-4.2-3.4v8.4h3.6c2.5,0,4.2-1.1,5.3-4.5h0.2V89.5z"/>
	<path class="st0" d="M631.1,72.7h-2.2v-0.3h4.2c0.5,0,0.9,0,1.4,0c0.5,0,0.9,0,1.4,0c2.7,0,6.3,1.1,6.3,4.4c0,2.2-2.4,3.3-4.2,3.7
		v0.1c4.8,0.7,4.9,3.2,4.9,5.9c0,1.7,0,2.9,1.4,2.9c0.7,0,1.1-0.4,1.3-0.6l0.2,0.3c-0.4,0.3-0.9,0.7-2.2,0.7c-3.3,0-4-2.1-4-4.2
		c0-0.4,0-2.1-0.1-2.8c-0.3-1.6-1.5-2-2.8-2H634v8.6h2.2v0.3h-7.3v-0.3h2.2V72.7z M634,80.4h2.6c1.2,0,2.4-0.4,2.4-3.6
		c0-2.3-0.7-4.2-3.2-4.2c-0.6,0-1.5,0.1-1.8,0.1V80.4z"/>
</g>
</svg>
